<svg width="24" height="32" viewBox="0 0 24 32" fill="none" xmlns="http://www.w3.org/2000/svg">
<g clip-path="url(#clip0)">
<path d="M23 2H19.5C19.2348 2 18.9804 2.10536 18.7929 2.29289C18.6054 2.48043 18.5 2.73478 18.5 3V6H15.5V3C15.5 2.73478 15.3946 2.48043 15.2071 2.29289C15.0196 2.10536 14.7652 2 14.5 2H9.5C9.23478 2 8.98043 2.10536 8.79289 2.29289C8.60536 2.48043 8.5 2.73478 8.5 3V6H5.50625V3C5.50625 2.73478 5.40089 2.48043 5.21336 2.29289C5.02582 2.10536 4.77147 2 4.50625 2H1C0.734784 2 0.48043 2.10536 0.292893 2.29289C0.105357 2.48043 0 2.73478 0 3L0 14L4 16C4 19.0206 3.90375 21.9375 3.17438 26H20.8256C20.0962 21.9375 20 18.9825 20 16L24 14V3C24 2.73478 23.8946 2.48043 23.7071 2.29289C23.5196 2.10536 23.2652 2 23 2ZM14 20H10V16C10 15.4696 10.2107 14.9609 10.5858 14.5858C10.9609 14.2107 11.4696 14 12 14C12.5304 14 13.0391 14.2107 13.4142 14.5858C13.7893 14.9609 14 15.4696 14 16V20ZM23 28H1C0.734784 28 0.48043 28.1054 0.292893 28.2929C0.105357 28.4804 0 28.7348 0 29L0 31C0 31.2652 0.105357 31.5196 0.292893 31.7071C0.48043 31.8946 0.734784 32 1 32H23C23.2652 32 23.5196 31.8946 23.7071 31.7071C23.8946 31.5196 24 31.2652 24 31V29C24 28.7348 23.8946 28.4804 23.7071 28.2929C23.5196 28.1054 23.2652 28 23 28Z" fill="black"/>
</g>
<defs>
<clipPath id="clip0">
<rect width="24" height="32" fill="white"/>
</clipPath>
</defs>
</svg>
