<svg width="45" height="44" viewBox="0 0 45 44" fill="none" xmlns="http://www.w3.org/2000/svg">
<path d="M0.5 22C0.5 9.84974 10.3497 0 22.5 0V0C34.6503 0 44.5 9.84974 44.5 22V22C44.5 34.1503 34.6503 44 22.5 44V44C10.3497 44 0.5 34.1503 0.5 22V22Z" fill="#C7CCDB"/>
<path d="M29.8125 21.3125C29.8125 25.3531 26.5406 28.625 22.5 28.625C18.4594 28.625 15.1875 25.3531 15.1875 21.3125C15.1875 17.2719 18.4594 14 22.5 14C26.5406 14 29.8125 17.2719 29.8125 21.3125Z" fill="#32363C"/>
<path d="M22.5 29.625C17.6185 29.625 7.875 32.0909 7.875 36.125V41H37.125V36.125C37.125 32.0909 27.3815 29.625 22.5 29.625Z" fill="#32363C"/>
</svg>
