<svg width="44" height="44" viewBox="0 0 44 44" fill="none" xmlns="http://www.w3.org/2000/svg">
<path d="M0 22C0 9.84974 9.84974 0 22 0C34.1503 0 44 9.84974 44 22C44 34.1503 34.1503 44 22 44C9.84974 44 0 34.1503 0 22Z" fill="#C7CCDB"/>
<path d="M29.3125 21.3125C29.3125 25.3531 26.0406 28.625 22 28.625C17.9594 28.625 14.6875 25.3531 14.6875 21.3125C14.6875 17.2719 17.9594 14 22 14C26.0406 14 29.3125 17.2719 29.3125 21.3125Z" fill="#32363C"/>
<path d="M22 29.625C17.1185 29.625 7.375 32.0909 7.375 36.125V41H36.625V36.125C36.625 32.0909 26.8815 29.625 22 29.625Z" fill="#32363C"/>
<path d="M22 41C11.5066 41 3 32.4934 3 22H-3C-3 35.8071 8.19288 47 22 47V41ZM41 22C41 32.4934 32.4934 41 22 41V47C35.8071 47 47 35.8071 47 22H41ZM22 3C32.4934 3 41 11.5066 41 22H47C47 8.19288 35.8071 -3 22 -3V3ZM22 -3C8.19288 -3 -3 8.19288 -3 22H3C3 11.5066 11.5066 3 22 3V-3Z" fill="#647CA2"/>
</svg>
