<svg width="39" height="40" viewBox="0 0 39 40" fill="none" xmlns="http://www.w3.org/2000/svg">
<g clip-path="url(#clip0)">
<path d="M22.7661 8.96492C22.0222 8.88445 21.2663 8.83833 20.5 8.82686C17.1517 8.84171 13.6808 9.65616 10.3953 11.2168C7.95594 12.4232 5.5797 14.1265 3.51605 16.2274C2.50254 17.2999 1.20901 18.8528 1 20.5097C1.0247 21.945 2.56497 23.7165 3.51605 24.792C5.4512 26.8105 7.76556 28.465 10.3953 29.8027C10.4847 29.8461 10.5744 29.8889 10.6643 29.9312L8.22446 34.192L11.5396 36.1513L29.4606 4.95026L26.2696 3L22.7661 8.96492ZM30.3333 11.093L27.8982 15.3133C29.0184 16.7688 29.6835 18.5635 29.6835 20.5097C29.6835 25.3606 25.5715 29.2933 20.4976 29.2933C20.2783 29.2933 20.0657 29.2696 19.8501 29.2552L18.2386 32.045C18.9818 32.1246 19.7333 32.1826 20.5 32.1926C23.8515 32.1775 27.3204 31.3537 30.6023 29.8027C33.0417 28.5962 35.4203 26.893 37.4839 24.792C38.4975 23.7196 39.7909 22.1666 40 20.5097C39.9753 19.0745 38.435 17.303 37.4839 16.2274C35.5488 14.209 33.232 12.5545 30.6023 11.2167C30.5135 11.1737 30.4226 11.135 30.3333 11.093ZM20.4976 11.7262C20.7201 11.7262 20.9409 11.7351 21.1594 11.75L19.2717 15.0182C16.6225 15.5553 14.6348 17.8093 14.6348 20.5074C14.6348 21.1851 14.7596 21.834 14.9894 22.4354C14.9897 22.4361 14.9892 22.4371 14.9894 22.4378L13.097 25.7156C11.9741 24.2588 11.3117 22.4581 11.3117 20.5097C11.3118 15.6589 15.4238 11.7262 20.4976 11.7262ZM25.9891 18.6173L21.7354 25.987C24.3704 25.4398 26.3438 23.196 26.3438 20.5074C26.3438 19.842 26.211 19.2093 25.9891 18.6173Z" fill="#EAECEE"/>
</g>
<defs>
<clipPath id="clip0">
<rect width="39" height="39" fill="white" transform="translate(0 0.5)"/>
</clipPath>
</defs>
</svg>
