<svg width="20" height="32" viewBox="0 0 20 32" fill="none" xmlns="http://www.w3.org/2000/svg">
<g clip-path="url(#clip0)">
<path d="M0.5024 17.9925C0.5024 21.22 1.88587 22.6069 4.00168 23.28V26H15.9992V23.28C18.115 22.6069 19.4985 21.2175 19.4985 17.9925C19.4985 16.0794 18.828 13.7987 17.8307 11.5825L11.5626 17.8531C11.4689 17.9468 11.3418 17.9995 11.2093 17.9995C11.0767 17.9995 10.9496 17.9468 10.8559 17.8531L10.1492 17.1462C10.0555 17.0525 10.0029 16.9254 10.0029 16.7928C10.0029 16.6603 10.0555 16.5331 10.1492 16.4394L16.8909 9.69375C15.5912 7.32438 13.9871 5.1875 12.4624 3.90687C13.3373 3.69312 13.9996 2.94062 13.9996 2C13.9996 1.46957 13.789 0.960859 13.414 0.585786C13.039 0.210714 12.5304 0 12 0L8.00086 0C7.47054 0 6.96193 0.210714 6.58694 0.585786C6.21194 0.960859 6.00127 1.46957 6.00127 2C6.00127 2.9375 6.66364 3.69312 7.53846 3.90687C4.23976 6.675 0.5024 13.4062 0.5024 17.9925ZM18.9986 28H1.0023C0.737135 28 0.482834 28.1054 0.295336 28.2929C0.107838 28.4804 0.00250244 28.7348 0.00250244 29L0.00250244 31C0.00250244 31.2652 0.107838 31.5196 0.295336 31.7071C0.482834 31.8946 0.737135 32 1.0023 32H18.9986C19.2638 32 19.5181 31.8946 19.7056 31.7071C19.8931 31.5196 19.9984 31.2652 19.9984 31V29C19.9984 28.7348 19.8931 28.4804 19.7056 28.2929C19.5181 28.1054 19.2638 28 18.9986 28Z" fill="white"/>
</g>
<defs>
<clipPath id="clip0">
<rect width="20" height="32" fill="white"/>
</clipPath>
</defs>
</svg>
