<svg width="28" height="32" viewBox="0 0 28 32" fill="none" xmlns="http://www.w3.org/2000/svg">
<g clip-path="url(#clip0)">
<path d="M24.9992 28H3.0024C2.73722 28 2.48291 28.1054 2.2954 28.2929C2.10789 28.4804 2.00255 28.7348 2.00255 29V31C2.00255 31.2652 2.10789 31.5196 2.2954 31.7071C2.48291 31.8946 2.73722 32 3.0024 32H24.9992C25.2644 32 25.5187 31.8946 25.7062 31.7071C25.8937 31.5196 25.999 31.2652 25.999 31V29C25.999 28.7348 25.8937 28.4804 25.7062 28.2929C25.5187 28.1054 25.2644 28 24.9992 28ZM25.999 10H16.0005V7H18.5001C18.6327 7 18.7599 6.94732 18.8536 6.85355C18.9474 6.75979 19.0001 6.63261 19.0001 6.5V3.5C19.0001 3.36739 18.9474 3.24021 18.8536 3.14645C18.7599 3.05268 18.6327 3 18.5001 3H16.0005V0.5C16.0005 0.367392 15.9478 0.240215 15.8541 0.146447C15.7603 0.0526784 15.6332 0 15.5006 0L12.501 0C12.3684 0 12.2413 0.0526784 12.1475 0.146447C12.0538 0.240215 12.0011 0.367392 12.0011 0.5V3H9.50145C9.36886 3 9.2417 3.05268 9.14795 3.14645C9.05419 3.24021 9.00152 3.36739 9.00152 3.5V6.5C9.00152 6.63261 9.05419 6.75979 9.14795 6.85355C9.2417 6.94732 9.36886 7 9.50145 7H12.0011V10H2.00255C1.68904 10.0002 1.37997 10.0742 1.10031 10.2159C0.820646 10.3576 0.578216 10.5631 0.392589 10.8158C0.206963 11.0685 0.0833419 11.3613 0.0317049 11.6706C-0.019932 11.9799 0.00186208 12.297 0.0953279 12.5962L4.66216 26H23.3394L27.9063 12.5962C27.9997 12.297 28.0215 11.9799 27.9699 11.6706C27.9182 11.3613 27.7946 11.0685 27.609 10.8158C27.4234 10.5631 27.1809 10.3576 26.9013 10.2159C26.6216 10.0742 26.3125 10.0002 25.999 10Z" fill="white"/>
</g>
<defs>
<clipPath id="clip0">
<rect width="28" height="32" fill="white"/>
</clipPath>
</defs>
</svg>
