<svg width="24" height="32" viewBox="0 0 24 32" fill="none" xmlns="http://www.w3.org/2000/svg">
<g clip-path="url(#clip0)">
<path d="M1.1875 17.0294L3.72688 18.1581C3.97098 18.2666 4.23433 18.3251 4.50141 18.3302C4.76848 18.3352 5.03386 18.2867 5.28188 18.1875L6.08063 17.8675C6.35981 17.7558 6.61021 17.5826 6.81321 17.3608C7.01621 17.139 7.16658 16.8742 7.25313 16.5863L7.82938 14.6706C7.88182 14.4607 7.97908 14.2645 8.11447 14.0957C8.24986 13.9268 8.42019 13.7893 8.61376 13.6925L9.99625 13V16.1456C9.99636 16.7028 9.8413 17.249 9.54843 17.723C9.25556 18.1971 8.83647 18.5801 8.33813 18.8294L4.76188 20.62C3.93168 21.0356 3.23358 21.6741 2.74578 22.464C2.25798 23.254 1.99975 24.1641 2 25.0925V26H21.9913V14C21.9913 7.375 16.6213 2 9.99625 2H0.750005C0.551092 2 0.360327 2.07902 0.219674 2.21967C0.0790221 2.36032 4.51044e-06 2.55109 4.51044e-06 2.75C-9.72479e-05 2.91447 0.0382117 3.0767 0.11188 3.22375L1 5L0.437505 5.5625C0.29833 5.70216 0.188053 5.86788 0.112983 6.0502C0.0379124 6.23251 -0.00047898 6.42784 4.51044e-06 6.625V15.2006C-0.000232723 15.5877 0.111836 15.9665 0.322619 16.2911C0.533402 16.6157 0.833844 16.8721 1.1875 17.0294ZM3.25 8C3.49723 8 3.73891 8.07331 3.94447 8.21066C4.15003 8.34801 4.31024 8.54324 4.40485 8.77165C4.49946 9.00005 4.52422 9.25139 4.47599 9.49386C4.42775 9.73634 4.3087 9.95907 4.13389 10.1339C3.95907 10.3087 3.73634 10.4278 3.49387 10.476C3.25139 10.5242 3.00006 10.4995 2.77165 10.4048C2.54324 10.3102 2.34802 10.15 2.21067 9.94446C2.07332 9.7389 2 9.49723 2 9.25C2 8.91848 2.1317 8.60054 2.36612 8.36612C2.60054 8.1317 2.91848 8 3.25 8ZM23 28H1C0.734788 28 0.480434 28.1054 0.292898 28.2929C0.105361 28.4804 4.51044e-06 28.7348 4.51044e-06 29V31C4.51044e-06 31.2652 0.105361 31.5196 0.292898 31.7071C0.480434 31.8946 0.734788 32 1 32H23C23.2652 32 23.5196 31.8946 23.7071 31.7071C23.8946 31.5196 24 31.2652 24 31V29C24 28.7348 23.8946 28.4804 23.7071 28.2929C23.5196 28.1054 23.2652 28 23 28Z" fill="white"/>
</g>
<defs>
<clipPath id="clip0">
<rect width="24" height="32" fill="white"/>
</clipPath>
</defs>
</svg>
