<svg width="20" height="32" viewBox="0 0 20 32" fill="none" xmlns="http://www.w3.org/2000/svg">
<path d="M6.56945 14H5.00102C4.73586 14 4.48156 14.1054 4.29406 14.2929C4.10656 14.4804 4.00122 14.7348 4.00122 15V17C4.00122 17.2652 4.10656 17.5196 4.29406 17.7071C4.48156 17.8946 4.73586 18 5.00102 18H6.00081V18.3431C6.00081 21.0931 5.74212 23.7556 4.50112 26H15.4989C14.256 23.7556 13.9992 21.0931 13.9992 18.3431V18H14.999C15.2641 18 15.5184 17.8946 15.7059 17.7071C15.8934 17.5196 15.9988 17.2652 15.9988 17V15C15.9988 14.7348 15.8934 14.4804 15.7059 14.2929C15.5184 14.1054 15.2641 14 14.999 14H13.4305C15.267 12.8512 16.4987 10.8263 16.4987 8.5C16.4987 6.77609 15.814 5.12279 14.5952 3.90381C13.3765 2.68482 11.7235 2 9.99999 2C8.27644 2 6.62348 2.68482 5.40474 3.90381C4.18601 5.12279 3.50133 6.77609 3.50133 8.5C3.50133 10.8263 4.73295 12.8512 6.56945 14ZM18.9981 28H1.00184C0.736678 28 0.482376 28.1054 0.294878 28.2929C0.10738 28.4804 0.00204468 28.7348 0.00204468 29L0.00204468 31C0.00204468 31.2652 0.10738 31.5196 0.294878 31.7071C0.482376 31.8946 0.736678 32 1.00184 32H18.9981C19.2633 32 19.5176 31.8946 19.7051 31.7071C19.8926 31.5196 19.9979 31.2652 19.9979 31V29C19.9979 28.7348 19.8926 28.4804 19.7051 28.2929C19.5176 28.1054 19.2633 28 18.9981 28Z" fill="white"/>
</svg>
