<svg width="32" height="32" viewBox="0 0 32 32" fill="none" xmlns="http://www.w3.org/2000/svg">
<g clip-path="url(#clip0)">
<path d="M16 7C16.6923 7 17.3689 6.79473 17.9445 6.41015C18.5201 6.02556 18.9687 5.47894 19.2336 4.83939C19.4985 4.19985 19.5678 3.49612 19.4328 2.81719C19.2977 2.13825 18.9644 1.51461 18.4749 1.02513C17.9854 0.535644 17.3618 0.202301 16.6828 0.0672531C16.0039 -0.0677952 15.3002 0.00151652 14.6606 0.266423C14.0211 0.53133 13.4745 0.979934 13.0899 1.55551C12.7053 2.13108 12.5 2.80777 12.5 3.5C12.5 4.42826 12.8688 5.3185 13.5251 5.97487C14.1815 6.63125 15.0718 7 16 7ZM27 28H5.00001C4.7348 28 4.48044 28.1054 4.29291 28.2929C4.10537 28.4804 4.00001 28.7348 4.00001 29V31C4.00001 31.2652 4.10537 31.5196 4.29291 31.7071C4.48044 31.8946 4.7348 32 5.00001 32H27C27.2652 32 27.5196 31.8946 27.7071 31.7071C27.8947 31.5196 28 31.2652 28 31V29C28 28.7348 27.8947 28.4804 27.7071 28.2929C27.5196 28.1054 27.2652 28 27 28ZM31.5544 11.51L29.7725 10.515C29.3075 10.2025 28.7156 10.3613 28.3794 10.8075C28.0444 11.2559 27.5897 11.6007 27.0675 11.8023C26.5454 12.0038 25.9769 12.0539 25.4275 11.9469C23.9813 11.6788 23 10.3081 23 8.8375C23 8.61538 22.9118 8.40236 22.7547 8.2453C22.5977 8.08824 22.3846 8 22.1625 8H19.7394C19.3644 8 19.0138 8.25 18.9356 8.61938C18.7938 9.29291 18.4247 9.8972 17.8902 10.3309C17.3557 10.7645 16.6883 11.0012 16 11.0012C15.3117 11.0012 14.6443 10.7645 14.1098 10.3309C13.5753 9.8972 13.2062 9.29291 13.0644 8.61938C12.9863 8.24938 12.6381 8 12.2606 8H9.83751C9.6154 8 9.40238 8.08824 9.24531 8.2453C9.08825 8.40236 9.00002 8.61538 9.00002 8.8375C9.00002 10.4431 7.81251 11.8844 6.20814 11.9931C5.70963 12.0283 5.2103 11.937 4.75646 11.7278C4.30261 11.5186 3.90893 11.1982 3.61189 10.7963C3.28189 10.3531 2.69126 10.2056 2.23126 10.5125L0.445639 11.5125C0.242765 11.6477 0.0962501 11.8523 0.0336387 12.0879C-0.0289727 12.3235 -0.00336804 12.5738 0.105639 12.7919L6.51501 26H25.485L31.8944 12.7894C32.0034 12.5713 32.029 12.321 31.9664 12.0854C31.9038 11.8498 31.7573 11.6452 31.5544 11.51Z" fill="white"/>
</g>
<defs>
<clipPath id="clip0">
<rect width="32" height="32" fill="white"/>
</clipPath>
</defs>
</svg>
